HIERARCHY
ROOT Hips
{
  OFFSET -69.4423 88.0299 51.6846
  CHANNELS 6 Xposition Yposition Zposition Zrotation Xrotation Yrotation
  JOINT Spine
  {
    OFFSET 12.0259 -0.162853 1.93176e-005
    CHANNELS 3 Zrotation Xrotation Yrotation
    JOINT Spine1
    {
      OFFSET 15.3169 -0.0121909 0
      CHANNELS 3 Zrotation Xrotation Yrotation
      JOINT Spine2
      {
        OFFSET 15.3176 -0.0121922 0
        CHANNELS 3 Zrotation Xrotation Yrotation
        JOINT Neck
        {
          OFFSET 19.9142 1.56236 0
          CHANNELS 3 Zrotation Xrotation Yrotation
          JOINT Head
          {
            OFFSET 6.92646 0 0
            CHANNELS 3 Zrotation Xrotation Yrotation
            End Site
            {
              OFFSET 20.7666 0 0
            }
          }
          JOINT LeftShoulder
          {
            OFFSET -4.94072 -1.14703 8.14416
            CHANNELS 3 Zrotation Xrotation Yrotation
            JOINT LeftArm
            {
              OFFSET 14.108 0 -2.74767e-005
              CHANNELS 3 Zrotation Xrotation Yrotation
              JOINT LeftForeArm
              {
                OFFSET 28.5802 -0.0783412 -0.0284884
                CHANNELS 3 Zrotation Xrotation Yrotation
                JOINT LeftHand
                {
                  OFFSET 27.092 0 0
                  CHANNELS 3 Zrotation Xrotation Yrotation
                  End Site
                  {
                    OFFSET 9.55928 -0.186424 0.145352
                  }
                }
              }
            }
          }
          JOINT RightShoulder
          {
            OFFSET -7.15748 -1.33027 -6.24935
            CHANNELS 3 Zrotation Xrotation Yrotation
            JOINT RightArm
            {
              OFFSET 14.108 0 1.82997e-005
              CHANNELS 3 Zrotation Xrotation Yrotation
              JOINT RightForeArm
              {
                OFFSET 28.5802 -0.0707221 2.30684e-005
                CHANNELS 3 Zrotation Xrotation Yrotation
                JOINT RightHand
                {
                  OFFSET 27.092 0 -1.30073e-005
                  CHANNELS 3 Zrotation Xrotation Yrotation
                  End Site
                  {
                    OFFSET 9.55929 -0.186417 -0.145354
                  }
                }
              }
            }
          }
        }
      }
    }
  }
  JOINT LeftUpLeg
  {
    OFFSET 0.00499725 -0.534999 8.837
    CHANNELS 3 Zrotation Xrotation Yrotation
    JOINT LeftLeg
    {
      OFFSET 39.9035 -0.00124594 0.000252775
      CHANNELS 3 Zrotation Xrotation Yrotation
      JOINT LeftFoot
      {
        OFFSET 39.6689 0 0
        CHANNELS 3 Zrotation Xrotation Yrotation
        JOINT LeftToe
        {
          OFFSET 10.1624 13.6296 0
          CHANNELS 3 Zrotation Xrotation Yrotation
          End Site
          {
            OFFSET 8.38147 0 0
          }
        }
      }
    }
  }
  JOINT RightUpLeg
  {
    OFFSET 0.00499725 -0.535 -8.837
    CHANNELS 3 Zrotation Xrotation Yrotation
    JOINT RightLeg
    {
      OFFSET 39.9036 -0.000268477 0.000106433
      CHANNELS 3 Zrotation Xrotation Yrotation
      JOINT RightFoot
      {
        OFFSET 39.6689 1.17892e-005 0
        CHANNELS 3 Zrotation Xrotation Yrotation
        JOINT RightToe
        {
          OFFSET 10.1624 13.6296 0
          CHANNELS 3 Zrotation Xrotation Yrotation
          End Site
          {
            OFFSET 8.38147 0 0
          }
        }
      }
    }
  }
}
MOTION
Frames:	6
Frame Time:	0.0333333
-82.6952 88.117 80.609 94.2669 1.99502 0.570134 -0.159983 0.818939 0.339207 -0.324849 1.63737 0.680976 -0.32485 1.63736 0.68096 -16.8806 5.62348 -5.73915 43.1737 10.1834 1.85766 -164.276 4.84539 -90.7466 -20.6065 6.4574 86.3052 -22.6188 2.25967 -14.4727 8.83169 -84.4681 11.3835 -164.153 3.20312 77.3431 -14.2663 -4.75476 -86.4162 -21.4568 -2.33453 13.3343 2.02889 79.4812 -1.87509 -7.04757 -1.10062 177.578 -20.2533 0.941866 -1.37964 3.99279 5.4739 1.00004 90 1.59028e-015 -1.59028e-015 -12.5143 1.62163 -176.781 -33.6634 -0.600922 0.270848 7.74571 -0.488904 -1.20335 90 -7.15625e-015 -5.56597e-015 
-82.9193 88.0841 80.6819 94.2956 2.26404 0.593959 -0.219814 0.851152 0.355095 -0.445029 1.70929 0.713755 -0.445034 1.7093 0.713746 -17.9669 5.77952 -5.81668 41.9589 10.089 1.29823 -163.186 4.8654 -90.9516 -21.5372 6.45121 86.4058 -22.6297 2.25724 -14.4829 10.0859 -84.7552 12.6262 -163.076 3.2094 77.1531 -14.7854 -4.84417 -86.3532 -21.6337 -2.37432 13.4393 2.26653 80.1164 -2.12426 -6.97427 -0.574559 177.613 -20.3265 0.945659 -1.35226 3.93634 6.67554 1.06945 90 2.82274e-014 2.62396e-014 -12.2831 1.90528 -176.744 -33.5936 -0.59927 0.280127 7.85484 0.231057 -1.16348 90 6.95746e-015 7.95139e-015 
-83.1804 88.0432 80.7284 94.2799 2.48669 0.567245 -0.27777 0.844428 0.320208 -0.560345 1.68792 0.644767 -0.560338 1.6879 0.644764 -18.8784 5.86059 -5.55277 40.9475 10.0944 0.97474 -162.3 4.9237 -90.8005 -21.516 6.50301 86.2228 -22.7356 2.26968 -14.5331 9.12302 -84.5701 11.6366 -162.193 3.26322 77.3294 -15.1689 -4.75618 -86.4402 -21.8635 -2.41426 13.5528 2.16341 80.2533 -2.02543 -6.85831 -0.916565 177.549 -20.4236 0.948773 -1.34789 4.14575 6.38488 1.04134 90 3.97569e-015 3.97569e-015 -12.0445 1.94721 -176.734 -33.5225 -0.598329 0.284324 7.97937 0.472193 -1.15824 90 -5.36719e-015 -5.56597e-015 
-83.3835 88.0012 80.733 94.2395 2.61173 0.471219 -0.346815 0.901501 0.325866 -0.698868 1.80152 0.657468 -0.698872 1.80148 0.657458 -19.5957 5.88219 -5.50505 40.3315 9.8975 0.659756 -161.606 4.89681 -90.8257 -21.7086 6.50589 86.3396 -22.7967 2.285 -14.5705 11.4465 -85.235 13.9898 -161.501 3.21984 77.3244 -15.8154 -4.82038 -86.356 -22.0645 -2.45925 13.6723 2.42119 80.8778 -2.28062 -6.73894 -0.985128 177.643 -20.5725 0.953963 -1.33896 4.37915 6.47911 1.03653 90 -1.35174e-014 -1.27222e-014 -11.8072 2.04728 -176.585 -33.4864 -0.597964 0.286461 8.30551 0.624449 -1.1749 90 -1.80894e-014 -1.90833e-014 
-83.6069 87.9839 80.7749 94.1865 2.9213 0.44329 -0.400743 0.906819 0.28888 -0.805996 1.7879 0.584276 -0.806 1.7879 0.584265 -20.3338 5.83456 -5.45229 39.8908 9.7146 0.618079 -160.893 4.78757 -90.8093 -21.6488 6.5399 86.1158 -22.7989 2.29359 -14.5749 11.564 -84.7039 14.1166 -160.79 3.09702 77.3587 -15.5119 -4.58269 -86.4544 -22.2596 -2.49334 13.7638 2.19263 80.4748 -2.04793 -6.67993 -1.4529 177.601 -20.7747 0.958115 -1.33165 4.52384 6.44398 1.02697 90 2.26615e-014 2.22639e-014 -11.4976 1.30166 -176.77 -33.3716 -0.598043 0.287736 8.30734 0.0689442 -1.20359 90 4.37326e-015 2.38542e-015 
-83.8112 87.9797 80.8159 94.1671 3.01264 0.348948 -0.453478 0.908371 0.323007 -0.912257 1.81461 0.653492 -0.912267 1.81461 0.653482 -20.6811 5.80467 -5.80913 39.2296 9.59863 0.76531 -160.537 4.5828 -91.1531 -21.952 6.49255 86.3895 -22.7726 2.27574 -14.5626 12.328 -85.85 14.8946 -160.435 2.89821 77.0168 -16.2351 -4.54539 -86.1388 -22.4634 -2.53721 13.8769 2.45955 81.3757 -2.31608 -6.64615 -1.84901 177.599 -20.9931 0.96007 -1.32731 4.73053 6.15842 1.00482 90 -7.55382e-015 -5.56597e-015 -11.2238 1.257 -176.709 -33.2002 -0.598431 0.28924 8.2706 0.231018 -1.19417 90 -7.35503e-015 -9.54166e-015 
